# xmcd CD database file
#
# Track frame offsets:
#	150
#	13300
#	24565
#	38195
#	53128
#	66973
#	80430
#	94753
#	106840
#	119160
#	136713
#	154275
#	169005
#	180755
#	195535
#	208500
#	219720
#	234000
#	248248
#	262410
#	277738
#	291105
#	306280
#
# Disc length: 4284 seconds
#
# Revision: 2
# Processed by: cddbd v1.5.2PL0 Copyright (c) Steve Scherf et al.
# Submitted via: CDex 1.51
#
DISCID=4610ba17
DTITLE=Lester Young - Vol. 073 - 1943-1947
DYEAR=1960
DGENRE=Jazz
TTITLE0=New Lester Leaps In (Here's Prez)
TTITLE1=Lester Blows Again
TTITLE2=Jammin' With Lester
TTITLE3=She's Funny That Way
TTITLE4=You're Driving Me Crazy (Still Leaping)
TTITLE5=D.B. Blues
TTITLE6=These Foolish Things
TTITLE7=After You've Gone
TTITLE8=Jumpin' At Mesner's
TTITLE9=Somebody Loves Me
TTITLE10=I Want To Be Happy
TTITLE11=Lester's Be-bop Boogie
TTITLE12=Lover Come Back To Me
TTITLE13=I Got Rythm
TTITLE14=Lester Smooths It Out
TTITLE15=I'm Confessin' (That I Love You)
TTITLE16=Jumpin' With Symphony Sid
TTITLE17=Just You Just Me
TTITLE18=I Never Knew
TTITLE19=Blue Lester (Lester's Blues)
TTITLE20=Indiana
TTITLE21=Ghost Of A Chance
TTITLE22=Jump Lester Jump (Lester's Savoy Jump)
EXTD=YEAR: 1960
EXTT0=
EXTT1=
EXTT2=
EXTT3=
EXTT4=
EXTT5=
EXTT6=
EXTT7=
EXTT8=
EXTT9=
EXTT10=
EXTT11=
EXTT12=
EXTT13=
EXTT14=
EXTT15=
EXTT16=
EXTT17=
EXTT18=
EXTT19=
EXTT20=
EXTT21=
EXTT22=
PLAYORDER=
